<svg width="60" height="60" xmlns="http://www.w3.org/2000/svg" viewBox="0 0 40.28 40.28"><defs><style>.cls-1{fill:#e6e7e8;}</style></defs><title>Asset 1</title><g id="Layer_2" data-name="Layer 2"><g id="Layer_1-2" data-name="Layer 1"><path class="cls-1" d="M20.14,40.28A20.14,20.14,0,1,0,0,20.14,20.14,20.14,0,0,0,20.14,40.28ZM9.31,19.63l5.89-6.25a.74.74,0,0,1,1,0,.78.78,0,0,1,0,1l-4.73,5h18.9a.74.74,0,1,1,0,1.48H11.54l4.73,5a.77.77,0,0,1,0,1,.74.74,0,0,1-1,0L9.31,20.65a.9.9,0,0,1-.21-.51h0A.71.71,0,0,1,9.31,19.63Z"/></g></g></svg>