<svg width="60" height="60" xmlns="http://www.w3.org/2000/svg" viewBox="0 0 40.28 40.28"><defs><style>.cls-1{fill:#e6e7e8;}</style></defs><title>Asset 2</title><g id="Layer_2" data-name="Layer 2"><g id="Layer_1-2" data-name="Layer 1"><path class="cls-1" d="M20.14,0A20.14,20.14,0,1,0,40.28,20.14,20.14,20.14,0,0,0,20.14,0ZM31,20.65,25.08,26.9a.74.74,0,0,1-1,0,.78.78,0,0,1,0-1l4.73-5H9.84a.74.74,0,1,1,0-1.48h18.9l-4.73-5a.77.77,0,0,1,0-1,.73.73,0,0,1,1,0L31,19.63a.9.9,0,0,1,.21.51h0A.71.71,0,0,1,31,20.65Z"/></g></g></svg>