<svg width="32" height="23" viewBox="0 0 32 23" fill="none" xmlns="http://www.w3.org/2000/svg">
<path d="M30.0408 0.428955H2.00942C0.904239 0.428955 0 1.23101 0 2.21129C0 3.19157 0.904239 3.99362 2.00942 3.99362H29.9906C31.0958 3.99362 32 3.19157 32 2.21129C32 1.23101 31.146 0.428955 30.0408 0.428955Z" fill="#010101"/>
<path d="M2.02729 12.9052H23.9727C25.0877 12.9052 26 12.1032 26 11.1229C26 10.1426 25.0877 9.34058 23.9727 9.34058H2.02729C0.912281 9.34058 0 10.1426 0 11.1229C0 12.1032 0.912281 12.9052 2.02729 12.9052Z" fill="#010101"/>
<path d="M30.0408 19.1436H2.00942C0.904239 19.1436 0 19.9456 0 20.9259C0 21.9062 0.904239 22.7082 2.00942 22.7082H29.9906C31.0958 22.7082 32 21.9062 32 20.9259C32 19.9456 31.146 19.1436 30.0408 19.1436Z" fill="#010101"/>
</svg>
